<svg width="214" height="57" viewBox="0 0 214 57" fill="none" xmlns="http://www.w3.org/2000/svg">
<g clip-path="url(#clip0_2_21)">
<path d="M43.0916 40.3469C43.0176 40.2729 42.9436 40.1989 42.8653 40.125C42.8653 40.125 35.4926 34.3332 32.9639 24.8252C32.7942 24.1812 32.0804 23.8461 31.4754 24.1159C30.9445 24.3509 30.2786 24.5989 29.5692 24.7468C29.1862 24.8252 28.912 24.3813 29.1601 24.0767C29.617 23.511 30.2089 22.6364 30.6964 21.431C30.8661 21.0133 30.3874 20.6347 30.0218 20.8958C28.7814 21.7835 26.5531 22.8931 23.2105 22.8235C22.4445 22.8061 22.1355 21.827 22.7448 21.3657C24.8905 19.7426 26.4225 17.3798 26.3137 15.835C26.1831 13.9465 20.8647 14.386 15.6246 11.0179C9.86219 7.30613 8.63921 1.84067 6.981 2.41072C5.50559 2.91984 5.46207 7.61508 6.30205 10.9266C6.33687 11.0571 6.33687 11.0528 6.42827 11.3182C6.4979 11.5314 6.85043 12.6019 6.91136 12.7977C7.51633 14.6645 8.56522 16.1744 8.71755 18.3023C8.74366 18.633 8.92646 21.7356 7.62513 22.8757C7.52068 22.9671 7.23343 23.1977 7.21602 23.5371C7.18991 24.0854 7.89932 24.6468 8.56087 24.8121C9.25723 24.9862 9.85348 24.7164 10.0667 24.6032C10.1277 24.6032 10.1756 24.6163 10.206 24.6294C10.3801 24.7077 10.4802 24.9427 10.4715 25.2212C10.4062 25.6433 10.3366 26.0653 10.2713 26.4874C10.2713 26.4874 10.4149 26.953 10.737 27.027C10.9415 27.0705 11.4116 27.0618 11.7337 27.0444C11.8903 27.0357 11.9991 27.1924 11.9426 27.3403L11.6031 28.1802C11.6031 28.1802 11.5683 28.8285 12.0688 28.8633C12.5736 28.8982 13.1133 28.8633 13.1133 28.8633C13.1133 28.8633 13.6878 28.8633 13.579 29.5813L13.5921 31.3785C13.5921 31.3785 13.6356 32.8493 15.2198 33.0364C15.7334 33.0973 16.2556 32.9885 16.7257 32.7579L21.931 30.2123C22.5011 29.9338 23.1757 30.0034 23.6762 30.3907C24.5336 31.0521 25.5782 32.3532 25.0124 34.5812C24.6685 35.9345 23.8373 37.1268 22.6926 37.9275C21.5871 38.702 19.8941 39.4679 17.718 39.2199C17.718 39.2199 5.37937 36.8091 1.88887 42.3138L0.378642 44.9246C-0.269843 46.0473 -0.0870489 47.4746 0.83998 48.3841C4.36965 51.8391 13.5181 58.3315 24.9427 56.7563C24.9427 56.7563 35.0051 56.2298 43.1656 47.7401C45.1284 45.6992 45.0501 42.3834 43.0872 40.3469H43.0916Z" fill="#F2F2F2"/>
<path d="M14.7324 5.41761C15.0936 5.77443 15.4592 6.1269 15.8248 6.47937C15.9379 6.58815 15.9771 6.7187 15.951 6.87535C15.8509 7.4541 15.7508 8.03719 15.655 8.61594C15.6289 8.76824 15.6811 8.89444 15.8074 8.98146C15.9336 9.07285 16.0729 9.0772 16.2078 9.00757C16.4907 8.85962 16.7779 8.71167 17.0608 8.55937C17.3002 8.43318 17.5352 8.31134 17.7746 8.18514C17.9095 8.11552 18.0401 8.11552 18.175 8.18514C18.6929 8.45929 19.2152 8.73343 19.7331 9.00322C19.9551 9.12071 20.2118 9.01628 20.2858 8.78565C20.3163 8.68992 20.2945 8.59418 20.2771 8.49845C20.1857 7.95017 20.09 7.40623 19.9942 6.85794C19.9681 6.70999 20.0116 6.5838 20.1204 6.47937C20.5165 6.09644 20.9082 5.71351 21.2999 5.33058C21.3826 5.25225 21.4566 5.16957 21.5045 5.06078V4.85191C21.4783 4.86497 21.4783 4.84321 21.474 4.83016C21.4131 4.68656 21.2999 4.61258 21.1476 4.59082C20.5644 4.50815 19.9855 4.42547 19.4067 4.33844C19.263 4.31668 19.1629 4.234 19.0977 4.09911C18.8409 3.57258 18.5797 3.04605 18.3186 2.51952C18.2055 2.29324 17.9313 2.22797 17.7354 2.38463C17.6832 2.42814 17.6484 2.48471 17.6179 2.54563C17.3698 3.04605 17.1174 3.54647 16.878 4.05124C16.7953 4.2253 16.6778 4.32103 16.482 4.34714C15.9249 4.42112 15.3721 4.50815 14.8151 4.58647C14.6932 4.60388 14.5844 4.64739 14.5104 4.75183C14.4886 4.78664 14.4799 4.83016 14.4495 4.85626C14.4495 4.85626 14.4495 4.85626 14.4495 4.85191V5.06078C14.506 5.21309 14.6323 5.30882 14.7411 5.41761H14.7324Z" fill="#F2F2F2"/>
<path d="M24.6903 7.31047C24.0157 7.07984 23.4847 6.54461 23.2541 5.87013C23.2149 5.75264 23.0495 5.75264 23.0103 5.87013C22.7753 6.53155 22.2487 7.05808 21.5872 7.28436C21.4696 7.32352 21.4696 7.48888 21.5872 7.52804C22.2618 7.75867 22.7927 8.2939 23.0234 8.96838C23.0626 9.08587 23.228 9.08587 23.2671 8.96838C23.5021 8.30696 24.0288 7.78043 24.6903 7.55415C24.8078 7.51499 24.8078 7.34963 24.6903 7.31047Z" fill="#F2F2F2"/>
<path d="M22.9059 1.53172C22.2313 1.30109 21.7003 0.765862 21.4696 0.0913828C21.4305 -0.0261071 21.2651 -0.0261071 21.2259 0.0913828C20.9909 0.752807 20.4643 1.27934 19.8027 1.50561C19.6852 1.54478 19.6852 1.71013 19.8027 1.7493C20.4773 1.97992 21.0083 2.51516 21.239 3.18963C21.2781 3.30712 21.4435 3.30712 21.4827 3.18963C21.7177 2.52821 22.2443 2.00168 22.9059 1.7754C23.0234 1.73624 23.0234 1.57088 22.9059 1.53172Z" fill="#F2F2F2"/>
<path d="M55.7828 24.2811L54.2638 22.2446H52.7666V24.2811H52.1747V19.0376H54.4292C54.7208 19.0376 54.9819 19.0767 55.2126 19.1507C55.4433 19.2247 55.6435 19.3335 55.8089 19.4684C55.9743 19.6076 56.1005 19.773 56.1919 19.9644C56.2833 20.1559 56.3268 20.3691 56.3268 20.6041C56.3268 20.8217 56.292 21.0218 56.2223 21.1915C56.1527 21.3656 56.0526 21.5136 55.9264 21.6398C55.8002 21.7659 55.6478 21.8747 55.4737 21.9574C55.2997 22.0444 55.1082 22.101 54.9036 22.1358L56.5139 24.2767H55.7871L55.7828 24.2811ZM55.3736 19.8556C55.1386 19.6729 54.8079 19.5815 54.3813 19.5815H52.7579V21.7181H54.3726C54.5685 21.7181 54.7469 21.692 54.9123 21.6441C55.0777 21.5962 55.2213 21.5223 55.3388 21.4309C55.4563 21.3395 55.5521 21.2264 55.6217 21.0871C55.687 20.9522 55.7218 20.7999 55.7218 20.6302C55.7218 20.2995 55.6043 20.0428 55.3693 19.86L55.3736 19.8556Z" fill="#F2F2F2"/>
<path d="M63.6255 19.5773H60.4266V21.3658H63.2904V21.9053H60.4266V23.7417H63.6647V24.2812H59.8391V19.0377H63.6299V19.5773H63.6255Z" fill="#F2F2F2"/>
<path d="M71.5031 22.6886C71.3682 23.0106 71.1767 23.2891 70.9286 23.5241C70.6805 23.7591 70.3846 23.9418 70.0451 24.0767C69.7012 24.2116 69.327 24.2769 68.9178 24.2769H67.0986V19.0334H68.9178C69.327 19.0334 69.7012 19.0986 70.0451 19.2335C70.3889 19.3641 70.6805 19.5512 70.9286 19.7818C71.1767 20.0124 71.3682 20.2953 71.5031 20.6129C71.638 20.9306 71.7033 21.2787 71.7033 21.6486C71.7033 22.0185 71.638 22.3622 71.5031 22.6842V22.6886ZM70.9373 20.8479C70.8328 20.5955 70.6892 20.3736 70.5021 20.1865C70.3149 19.9994 70.0842 19.8514 69.8144 19.7426C69.5446 19.6339 69.2443 19.5816 68.9135 19.5816H67.6862V23.733H68.9135C69.2443 23.733 69.5446 23.6807 69.8144 23.5763C70.0842 23.4719 70.3149 23.3239 70.5021 23.1368C70.6892 22.9497 70.8328 22.7321 70.9373 22.4797C71.0417 22.2317 71.0896 21.9575 71.0896 21.6616C71.0896 21.3657 71.0374 21.1003 70.9373 20.8436V20.8479Z" fill="#F2F2F2"/>
<path d="M78.9933 19.5773H75.7944V21.3658H78.6582V21.9053H75.7944V23.7417H79.0325V24.2812H75.2068V19.0377H78.9977V19.5773H78.9933Z" fill="#F2F2F2"/>
<path d="M59.9043 30.3167L60.0262 30.2428V29.4812H63.5646V41.7611H60.0262V40.5819L59.8782 40.534C59.1166 41.3956 57.8414 42.0091 56.2659 42.0091C52.9494 42.0091 50.3468 39.185 50.3468 35.6255C50.3468 32.066 53.0495 29.2419 56.5139 29.2419C58.0633 29.2419 59.1166 29.6858 59.9043 30.3211V30.3167ZM60.0262 37.4401V32.9711C59.2646 32.4533 58.207 32.1356 56.9535 32.1356C55.2605 32.1356 53.8808 33.5847 53.8808 35.6212C53.8808 37.6577 55.2561 39.1067 56.9535 39.1067C58.207 39.1067 59.3864 38.6629 60.0262 37.4357V37.4401Z" fill="#F2F2F2"/>
<path d="M78.7713 36.1651C78.7713 39.7029 76.1165 42.0091 72.6303 42.0091C69.1442 42.0091 66.4893 39.6985 66.4893 36.1651V29.4856H70.0277V36.1651C70.0277 38.1537 71.1331 39.1111 72.6303 39.1111C74.1275 39.1111 75.233 38.1537 75.233 36.1651V29.4856H78.7713V36.1651Z" fill="#F2F2F2"/>
<path d="M80.1466 29.4856H81.9398V25.5562H85.4781V29.4856H88.5247V32.1879H85.4781V37.1224C85.4781 38.3017 86.1397 38.7934 87.1015 38.7934C87.6673 38.7934 88.2331 38.6933 88.6509 38.5497L89.1427 41.3738C88.4551 41.6915 87.4236 41.8917 86.514 41.8917C83.8852 41.8917 81.9441 40.2468 81.9441 37.3226V32.1879H80.151V29.4856H80.1466Z" fill="#F2F2F2"/>
<path d="M96.8767 29.2375C100.781 29.2375 103.679 32.0617 103.679 35.6212C103.679 39.1807 100.781 42.0048 96.8767 42.0048C92.9727 42.0048 90.0741 39.1807 90.0741 35.6212C90.0741 32.0617 92.9466 29.2375 96.8767 29.2375ZM96.8767 39.111C98.7699 39.111 100.145 37.662 100.145 35.6255C100.145 33.589 98.7699 32.14 96.8767 32.14C94.9835 32.14 93.6081 33.6151 93.6081 35.6255C93.6081 37.6359 94.9573 39.111 96.8767 39.111Z" fill="#F2F2F2"/>
<path d="M117.437 35.1817V36.6568H108.715C108.959 38.3496 110.042 39.0893 112.349 39.1111C113.65 39.1111 114.904 38.8674 115.961 38.3757L116.575 40.9561C115.274 41.6697 113.798 42.0135 112.349 42.0135C107.927 42.0135 105.129 39.6071 105.129 35.6516C105.129 32.2879 107.44 29.2898 111.418 29.2419C114.93 29.2419 117.363 31.3045 117.437 35.186V35.1817ZM108.815 34.3462H113.877C113.729 32.7492 112.771 32.1356 111.544 32.1356C109.994 32.1356 109.137 32.9233 108.815 34.3462Z" fill="#F2F2F2"/>
<path d="M119.917 38.3757C121.023 38.7455 122.155 39.0153 123.282 39.0153C124.313 39.0153 125.123 38.7194 125.123 38.0101C125.123 37.4444 124.779 37.0528 123.208 36.7352C120.849 36.2434 119.352 35.0903 119.352 33.1234C119.352 30.543 121.663 29.2419 124.217 29.2419C125.619 29.2419 126.946 29.5857 128.148 30.0774L127.63 32.8275C126.572 32.4577 125.493 32.1879 124.413 32.1879C123.578 32.1879 122.842 32.5055 122.842 33.1234C122.842 33.6151 123.112 34.0329 124.757 34.3505C127.164 34.8423 128.639 35.8257 128.639 37.9101C128.639 40.6863 126.159 41.9613 123.504 41.9613C122.054 41.9613 120.679 41.6436 119.378 41.1519L119.917 38.3757Z" fill="#F2F2F2"/>
<path d="M129.767 29.4856H131.56V25.5562H135.098V29.4856H138.145V32.1879H135.098V37.1224C135.098 38.3017 135.76 38.7934 136.721 38.7934C137.287 38.7934 137.853 38.6933 138.271 38.5497L138.763 41.3738C138.075 41.6915 137.044 41.8917 136.134 41.8917C133.505 41.8917 131.564 40.2468 131.564 37.3226V32.1879H129.771V29.4856H129.767Z" fill="#F2F2F2"/>
<path d="M142.636 24.3987C144.038 24.3987 144.625 25.2081 144.625 25.9957C144.625 26.7311 144.038 27.5666 142.636 27.5666C141.309 27.5666 140.669 26.7311 140.669 25.9957C140.669 25.2081 141.309 24.3987 142.636 24.3987ZM140.895 29.4856H144.434V41.7655H140.895V29.4856Z" fill="#F2F2F2"/>
<path d="M168.062 41.7655H164.524V34.5942C164.524 32.8754 163.592 32.14 162.387 32.14C161.307 32.14 160.276 32.4359 159.636 33.2192C159.684 33.489 159.71 33.8066 159.71 34.1025V41.7655H156.172V34.4941C156.172 32.8493 155.24 32.1356 154.035 32.1356C152.929 32.1356 151.898 32.6752 151.306 33.4628V41.7655H147.768V29.4856H151.306V30.543L151.454 30.5909C152.216 29.8033 153.421 29.2419 154.918 29.2419C156.516 29.2419 157.939 29.8555 158.822 31.0826C159.88 29.9294 161.377 29.2419 163.27 29.2419C165.973 29.2419 168.062 31.0347 168.062 34.5942V41.7655Z" fill="#F2F2F2"/>
<path d="M179.582 30.3167L179.704 30.2428V29.4812H183.243V41.7611H179.704V40.5819L179.556 40.534C178.795 41.3956 177.519 42.0091 175.944 42.0091C172.628 42.0091 170.025 39.185 170.025 35.6255C170.025 32.066 172.728 29.2419 176.192 29.2419C177.741 29.2419 178.795 29.6858 179.582 30.3211V30.3167ZM179.704 37.4401V32.9711C178.943 32.4533 177.885 32.1356 176.636 32.1356C174.943 32.1356 173.563 33.5847 173.563 35.6212C173.563 37.6577 174.939 39.1067 176.636 39.1067C177.889 39.1067 179.069 38.6629 179.704 37.4357V37.4401Z" fill="#F2F2F2"/>
<path d="M185.345 34.8118V32.3054H189.027V34.8118H185.345Z" fill="#F2F2F2"/>
<path d="M191.229 38.3757C192.335 38.7455 193.466 39.0153 194.593 39.0153C195.625 39.0153 196.434 38.7194 196.434 38.0101C196.434 37.4444 196.091 37.0528 194.519 36.7352C192.16 36.2434 190.663 35.0903 190.663 33.1234C190.663 30.543 192.974 29.2419 195.525 29.2419C196.926 29.2419 198.254 29.5857 199.455 30.0774L198.937 32.8275C197.879 32.4577 196.8 32.1879 195.721 32.1879C194.885 32.1879 194.149 32.5055 194.149 33.1234C194.149 33.6151 194.419 34.0329 196.064 34.3505C198.471 34.8423 199.947 35.8257 199.947 37.9101C199.947 40.6863 197.466 41.9613 194.811 41.9613C193.362 41.9613 191.986 41.6436 190.685 41.1519L191.225 38.3757H191.229Z" fill="#F2F2F2"/>
<path d="M214 35.1817V36.6568H205.278C205.522 38.3496 206.606 39.0893 208.912 39.1111C210.214 39.1111 211.467 38.8674 212.525 38.3757L213.138 40.9561C211.837 41.6697 210.362 42.0135 208.912 42.0135C204.49 42.0135 201.692 39.6071 201.692 35.6516C201.692 32.2879 204.003 29.2898 207.981 29.2419C211.493 29.2419 213.926 31.3045 214 35.186V35.1817ZM205.378 34.3462H210.44C210.292 32.7492 209.334 32.1356 208.107 32.1356C206.558 32.1356 205.7 32.9233 205.383 34.3462H205.378Z" fill="#F2F2F2"/>
</g>
<defs>
<clipPath id="clip0_2_21">
<rect width="214" height="57" fill="white"/>
</clipPath>
</defs>
</svg>
