<svg width="19" height="22" viewBox="0 0 19 22" fill="none" xmlns="http://www.w3.org/2000/svg">
<path d="M18.2382 9.68746L2.48822 0.69777C2.22255 0.548215 1.91762 0.483161 1.61405 0.511276C1.31048 0.539391 1.02268 0.659341 0.789002 0.855143C0.555322 1.05095 0.386852 1.31331 0.306039 1.60727C0.225225 1.90123 0.235904 2.21284 0.336653 2.50058L3.20822 11L0.336653 19.5003C0.256738 19.7265 0.23224 19.9685 0.265215 20.2061C0.298189 20.4438 0.387675 20.67 0.526162 20.8659C0.664649 21.0618 0.848099 21.2216 1.06112 21.3319C1.27414 21.4422 1.51051 21.4999 1.7504 21.5C2.01103 21.4994 2.2671 21.4316 2.49384 21.3031L18.2363 12.2984C18.4685 12.1683 18.662 11.9788 18.7967 11.7493C18.9315 11.5198 19.0028 11.2586 19.0033 10.9924C19.0037 10.7263 18.9334 10.4648 18.7994 10.2348C18.6655 10.0048 18.4728 9.81461 18.241 9.68371L18.2382 9.68746ZM1.7504 20C1.75081 19.9962 1.75081 19.9924 1.7504 19.9887L4.53853 11.75H10.0004C10.1993 11.75 10.3901 11.6709 10.5307 11.5303C10.6714 11.3896 10.7504 11.1989 10.7504 11C10.7504 10.801 10.6714 10.6103 10.5307 10.4696C10.3901 10.329 10.1993 10.25 10.0004 10.25H4.53853L1.75603 2.01496C1.75511 2.00965 1.7532 2.00456 1.7504 1.99996L17.5004 10.984L1.7504 20Z" fill="#945A9A"/>
</svg>
