<svg width="60" height="61" viewBox="0 0 60 61" fill="none" xmlns="http://www.w3.org/2000/svg">
<rect x="1" y="1.81836" width="58" height="58" rx="29" fill="white"/>
<rect x="1" y="1.81836" width="58" height="58" rx="29" stroke="#3B413F" stroke-width="2"/>
<path d="M30 14.5684C26.7861 14.5684 23.6443 15.5214 20.972 17.307C18.2997 19.0926 16.2169 21.6305 14.987 24.5998C13.757 27.5691 13.4352 30.8364 14.0622 33.9886C14.6893 37.1408 16.2369 40.0362 18.5095 42.3088C20.7821 44.5814 23.6776 46.1291 26.8298 46.7561C29.982 47.3831 33.2493 47.0613 36.2186 45.8314C39.1879 44.6015 41.7258 42.5187 43.5114 39.8464C45.297 37.1741 46.25 34.0323 46.25 30.8184C46.2455 26.51 44.5319 22.3794 41.4855 19.3329C38.439 16.2864 34.3084 14.5729 30 14.5684ZM30 44.5684C27.2805 44.5684 24.6221 43.7619 22.3609 42.2511C20.0997 40.7402 18.3374 38.5927 17.2967 36.0803C16.256 33.5678 15.9837 30.8031 16.5142 28.1359C17.0448 25.4686 18.3543 23.0186 20.2773 21.0956C22.2003 19.1727 24.6503 17.8631 27.3175 17.3326C29.9848 16.802 32.7494 17.0743 35.2619 18.115C37.7744 19.1557 39.9218 20.9181 41.4327 23.1793C42.9436 25.4404 43.75 28.0989 43.75 30.8184C43.7459 34.4638 42.2959 37.9588 39.7182 40.5365C37.1404 43.1142 33.6455 44.5642 30 44.5684ZM22.5 27.6934C22.5 27.3225 22.61 26.96 22.816 26.6517C23.022 26.3433 23.3149 26.103 23.6575 25.9611C24.0001 25.8192 24.3771 25.782 24.7408 25.8544C25.1045 25.9267 25.4386 26.1053 25.7008 26.3675C25.9631 26.6298 26.1416 26.9639 26.214 27.3276C26.2863 27.6913 26.2492 28.0683 26.1073 28.4109C25.9654 28.7535 25.725 29.0463 25.4167 29.2524C25.1084 29.4584 24.7458 29.5684 24.375 29.5684C23.8777 29.5684 23.4008 29.3708 23.0492 29.0192C22.6976 28.6676 22.5 28.1906 22.5 27.6934ZM37.5 27.6934C37.5 28.0642 37.39 28.4267 37.184 28.7351C36.978 29.0434 36.6851 29.2837 36.3425 29.4256C35.9999 29.5675 35.6229 29.6047 35.2592 29.5323C34.8955 29.46 34.5614 29.2814 34.2992 29.0192C34.037 28.757 33.8584 28.4229 33.786 28.0592C33.7137 27.6954 33.7508 27.3184 33.8927 26.9758C34.0346 26.6332 34.275 26.3404 34.5833 26.1344C34.8917 25.9283 35.2542 25.8184 35.625 25.8184C36.1223 25.8184 36.5992 26.0159 36.9508 26.3675C37.3025 26.7192 37.5 27.1961 37.5 27.6934ZM37.3328 35.1934C35.725 37.973 33.0516 39.5684 30 39.5684C26.9484 39.5684 24.2766 37.9746 22.6688 35.1934C22.5783 35.0511 22.5176 34.892 22.4902 34.7256C22.4629 34.5593 22.4694 34.3891 22.5095 34.2254C22.5497 34.0616 22.6225 33.9077 22.7236 33.7728C22.8248 33.6379 22.9521 33.5249 23.0981 33.4406C23.2441 33.3562 23.4056 33.3022 23.5729 33.2819C23.7403 33.2616 23.91 33.2753 24.0719 33.3223C24.2338 33.3692 24.3846 33.4485 24.5151 33.5552C24.6456 33.6619 24.7531 33.794 24.8313 33.9434C25.9984 35.9605 27.8328 37.0684 30 37.0684C32.1672 37.0684 34.0016 35.959 35.1672 33.9434C35.333 33.6562 35.606 33.4466 35.9263 33.3608C36.2466 33.2749 36.5878 33.3198 36.875 33.4855C37.1622 33.6513 37.3718 33.9244 37.4576 34.2446C37.5435 34.5649 37.4986 34.9062 37.3328 35.1934Z" fill="#945A9A"/>
</svg>
