<svg width="40" height="40" viewBox="0 0 40 40" fill="none" xmlns="http://www.w3.org/2000/svg">
<path d="M32.1351 30.3656C32.2512 30.4818 32.3433 30.6196 32.4062 30.7714C32.469 30.9231 32.5014 31.0858 32.5014 31.25C32.5014 31.4142 32.469 31.5769 32.4062 31.7286C32.3433 31.8804 32.2512 32.0182 32.1351 32.1344C32.0189 32.2505 31.8811 32.3426 31.7293 32.4055C31.5776 32.4683 31.4149 32.5007 31.2507 32.5007C31.0865 32.5007 30.9238 32.4683 30.7721 32.4055C30.6203 32.3426 30.4825 32.2505 30.3663 32.1344L20.0007 21.7672L9.63507 32.1344C9.40052 32.3689 9.0824 32.5007 8.75069 32.5007C8.41899 32.5007 8.10087 32.3689 7.86632 32.1344C7.63177 31.8998 7.5 31.5817 7.5 31.25C7.5 30.9183 7.63177 30.6002 7.86632 30.3656L18.2335 20L7.86632 9.63437C7.63177 9.39982 7.5 9.0817 7.5 8.74999C7.5 8.41829 7.63177 8.10017 7.86632 7.86562C8.10087 7.63107 8.41899 7.4993 8.75069 7.4993C9.0824 7.4993 9.40052 7.63107 9.63507 7.86562L20.0007 18.2328L30.3663 7.86562C30.6009 7.63107 30.919 7.4993 31.2507 7.4993C31.5824 7.4993 31.9005 7.63107 32.1351 7.86562C32.3696 8.10017 32.5014 8.41829 32.5014 8.74999C32.5014 9.0817 32.3696 9.39982 32.1351 9.63437L21.7679 20L32.1351 30.3656Z" fill="#3B413F"/>
</svg>
