<svg width="64" height="64" viewBox="0 0 64 64" fill="none" xmlns="http://www.w3.org/2000/svg">
<rect x="1" y="1" width="62" height="62" rx="31" fill="white"/>
<rect x="1" y="1" width="62" height="62" rx="31" stroke="#945A9A" stroke-width="2"/>
<path d="M32 15.75C28.7861 15.75 25.6443 16.703 22.972 18.4886C20.2997 20.2742 18.2169 22.8121 16.987 25.7814C15.757 28.7507 15.4352 32.018 16.0622 35.1702C16.6893 38.3224 18.2369 41.2179 20.5095 43.4905C22.7821 45.7631 25.6776 47.3107 28.8298 47.9378C31.982 48.5648 35.2493 48.243 38.2186 47.013C41.1879 45.7831 43.7258 43.7003 45.5114 41.028C47.297 38.3557 48.25 35.2139 48.25 32C48.2455 27.6916 46.5319 23.561 43.4855 20.5145C40.439 17.4681 36.3084 15.7545 32 15.75ZM33.25 45.6922V35.75H37C37.3315 35.75 37.6495 35.6183 37.8839 35.3839C38.1183 35.1495 38.25 34.8315 38.25 34.5C38.25 34.1685 38.1183 33.8505 37.8839 33.6161C37.6495 33.3817 37.3315 33.25 37 33.25H33.25V29.5C33.25 28.837 33.5134 28.2011 33.9822 27.7322C34.4511 27.2634 35.087 27 35.75 27H38.25C38.5815 27 38.8995 26.8683 39.1339 26.6339C39.3683 26.3995 39.5 26.0815 39.5 25.75C39.5 25.4185 39.3683 25.1005 39.1339 24.8661C38.8995 24.6317 38.5815 24.5 38.25 24.5H35.75C34.4239 24.5 33.1522 25.0268 32.2145 25.9645C31.2768 26.9021 30.75 28.1739 30.75 29.5V33.25H27C26.6685 33.25 26.3505 33.3817 26.1161 33.6161C25.8817 33.8505 25.75 34.1685 25.75 34.5C25.75 34.8315 25.8817 35.1495 26.1161 35.3839C26.3505 35.6183 26.6685 35.75 27 35.75H30.75V45.6922C27.2262 45.3705 23.9621 43.7028 21.6366 41.0359C19.3111 38.369 18.1032 34.9082 18.2642 31.3735C18.4253 27.8387 19.9427 24.5021 22.5011 22.0577C25.0594 19.6132 28.4616 18.2491 32 18.2491C35.5384 18.2491 38.9406 19.6132 41.499 22.0577C44.0573 24.5021 45.5748 27.8387 45.7358 31.3735C45.8968 34.9082 44.6889 38.369 42.3634 41.0359C40.0379 43.7028 36.7738 45.3705 33.25 45.6922Z" fill="black"/>
</svg>
