<svg width="64" height="64" viewBox="0 0 64 64" fill="none" xmlns="http://www.w3.org/2000/svg">
<rect x="1" y="1" width="62" height="62" rx="31" fill="white"/>
<rect x="1" y="1" width="62" height="62" rx="31" stroke="#945A9A" stroke-width="2"/>
<path d="M32 24.5C30.5166 24.5 29.0666 24.9399 27.8332 25.764C26.5999 26.5881 25.6386 27.7594 25.0709 29.1299C24.5032 30.5003 24.3547 32.0083 24.6441 33.4632C24.9335 34.918 25.6478 36.2544 26.6967 37.3033C27.7456 38.3522 29.082 39.0665 30.5368 39.3559C31.9917 39.6453 33.4997 39.4968 34.8701 38.9291C36.2406 38.3614 37.4119 37.4001 38.236 36.1668C39.0601 34.9334 39.5 33.4834 39.5 32C39.4979 30.0115 38.7071 28.1051 37.301 26.699C35.8949 25.2929 33.9885 24.5021 32 24.5ZM32 37C31.0111 37 30.0444 36.7068 29.2221 36.1573C28.3999 35.6079 27.759 34.827 27.3806 33.9134C27.0022 32.9998 26.9031 31.9945 27.0961 31.0245C27.289 30.0546 27.7652 29.1637 28.4645 28.4645C29.1637 27.7652 30.0546 27.289 31.0245 27.0961C31.9945 26.9031 32.9998 27.0022 33.9134 27.3806C34.827 27.759 35.6079 28.3999 36.1573 29.2221C36.7068 30.0444 37 31.0111 37 32C37 33.3261 36.4732 34.5979 35.5355 35.5355C34.5979 36.4732 33.3261 37 32 37ZM39.5 15.75H24.5C22.1801 15.7525 19.956 16.6752 18.3156 18.3156C16.6752 19.956 15.7525 22.1801 15.75 24.5V39.5C15.7525 41.8199 16.6752 44.044 18.3156 45.6844C19.956 47.3249 22.1801 48.2475 24.5 48.25H39.5C41.8199 48.2475 44.044 47.3249 45.6844 45.6844C47.3249 44.044 48.2475 41.8199 48.25 39.5V24.5C48.2475 22.1801 47.3249 19.956 45.6844 18.3156C44.044 16.6752 41.8199 15.7525 39.5 15.75ZM45.75 39.5C45.75 41.1576 45.0915 42.7473 43.9194 43.9194C42.7473 45.0915 41.1576 45.75 39.5 45.75H24.5C22.8424 45.75 21.2527 45.0915 20.0806 43.9194C18.9085 42.7473 18.25 41.1576 18.25 39.5V24.5C18.25 22.8424 18.9085 21.2527 20.0806 20.0806C21.2527 18.9085 22.8424 18.25 24.5 18.25H39.5C41.1576 18.25 42.7473 18.9085 43.9194 20.0806C45.0915 21.2527 45.75 22.8424 45.75 24.5V39.5ZM42 23.875C42 24.2458 41.89 24.6084 41.684 24.9167C41.478 25.225 41.1851 25.4654 40.8425 25.6073C40.4999 25.7492 40.1229 25.7863 39.7592 25.714C39.3955 25.6416 39.0614 25.463 38.7992 25.2008C38.537 24.9386 38.3584 24.6045 38.286 24.2408C38.2137 23.8771 38.2508 23.5001 38.3927 23.1575C38.5346 22.8149 38.775 22.522 39.0833 22.316C39.3916 22.11 39.7542 22 40.125 22C40.6223 22 41.0992 22.1975 41.4508 22.5492C41.8025 22.9008 42 23.3777 42 23.875Z" fill="black"/>
</svg>
