<svg width="64" height="64" viewBox="0 0 64 64" fill="none" xmlns="http://www.w3.org/2000/svg">
<rect x="1" y="1" width="62" height="62" rx="31" fill="white"/>
<rect x="1" y="1" width="62" height="62" rx="31" stroke="#945A9A" stroke-width="2"/>
<path d="M45.75 15.75H18.25C17.587 15.75 16.9511 16.0134 16.4822 16.4822C16.0134 16.9511 15.75 17.587 15.75 18.25V45.75C15.75 46.413 16.0134 47.0489 16.4822 47.5178C16.9511 47.9866 17.587 48.25 18.25 48.25H45.75C46.413 48.25 47.0489 47.9866 47.5178 47.5178C47.9866 47.0489 48.25 46.413 48.25 45.75V18.25C48.25 17.587 47.9866 16.9511 47.5178 16.4822C47.0489 16.0134 46.413 15.75 45.75 15.75ZM45.75 45.75H18.25V18.25H45.75V45.75ZM27 29.5V39.5C27 39.8315 26.8683 40.1495 26.6339 40.3839C26.3995 40.6183 26.0815 40.75 25.75 40.75C25.4185 40.75 25.1005 40.6183 24.8661 40.3839C24.6317 40.1495 24.5 39.8315 24.5 39.5V29.5C24.5 29.1685 24.6317 28.8505 24.8661 28.6161C25.1005 28.3817 25.4185 28.25 25.75 28.25C26.0815 28.25 26.3995 28.3817 26.6339 28.6161C26.8683 28.8505 27 29.1685 27 29.5ZM40.75 33.875V39.5C40.75 39.8315 40.6183 40.1495 40.3839 40.3839C40.1495 40.6183 39.8315 40.75 39.5 40.75C39.1685 40.75 38.8505 40.6183 38.6161 40.3839C38.3817 40.1495 38.25 39.8315 38.25 39.5V33.875C38.25 33.0462 37.9208 32.2513 37.3347 31.6653C36.7487 31.0792 35.9538 30.75 35.125 30.75C34.2962 30.75 33.5013 31.0792 32.9153 31.6653C32.3292 32.2513 32 33.0462 32 33.875V39.5C32 39.8315 31.8683 40.1495 31.6339 40.3839C31.3995 40.6183 31.0815 40.75 30.75 40.75C30.4185 40.75 30.1005 40.6183 29.8661 40.3839C29.6317 40.1495 29.5 39.8315 29.5 39.5V29.5C29.5016 29.1938 29.6154 28.8989 29.82 28.6711C30.0246 28.4433 30.3057 28.2985 30.61 28.2642C30.9142 28.2299 31.2205 28.3085 31.4707 28.485C31.7208 28.6615 31.8975 28.9237 31.9672 29.2219C32.8128 28.6482 33.7987 28.3158 34.819 28.2602C35.8393 28.2046 36.8554 28.428 37.7584 28.9063C38.6613 29.3847 39.4169 30.1 39.9439 30.9754C40.471 31.8508 40.7497 32.8532 40.75 33.875ZM27.625 25.125C27.625 25.4958 27.515 25.8584 27.309 26.1667C27.103 26.475 26.8101 26.7154 26.4675 26.8573C26.1249 26.9992 25.7479 27.0363 25.3842 26.964C25.0205 26.8916 24.6864 26.713 24.4242 26.4508C24.162 26.1886 23.9834 25.8545 23.911 25.4908C23.8387 25.1271 23.8758 24.7501 24.0177 24.4075C24.1596 24.0649 24.4 23.772 24.7083 23.566C25.0166 23.36 25.3792 23.25 25.75 23.25C26.2473 23.25 26.7242 23.4475 27.0758 23.7992C27.4275 24.1508 27.625 24.6277 27.625 25.125Z" fill="black"/>
</svg>
