<svg width="64" height="64" viewBox="0 0 64 64" fill="none" xmlns="http://www.w3.org/2000/svg">
<rect x="1" y="1" width="62" height="62" rx="31" fill="white"/>
<rect x="1" y="1" width="62" height="62" rx="31" stroke="#945A9A" stroke-width="2"/>
<path d="M41.3145 34.6312L36.3145 32.1312C36.1177 32.0332 35.8985 31.9888 35.679 32.0025C35.4595 32.0162 35.2475 32.0876 35.0645 32.2094L32.7692 33.7406C31.7155 33.1614 30.8484 32.2943 30.2692 31.2406L31.8004 28.9453C31.9222 28.7622 31.9936 28.5503 32.0073 28.3308C32.021 28.1113 31.9766 27.8921 31.8785 27.6953L29.3785 22.6953C29.2749 22.486 29.1148 22.31 28.9162 22.1871C28.7176 22.0642 28.4886 21.9994 28.2551 22C26.5975 22 25.0078 22.6585 23.8357 23.8306C22.6636 25.0027 22.0051 26.5924 22.0051 28.25C22.0092 31.8955 23.4592 35.3904 26.037 37.9682C28.6147 40.5459 32.1096 41.9959 35.7551 42C36.5759 42 37.3886 41.8383 38.1469 41.5242C38.9052 41.2102 39.5942 40.7498 40.1745 40.1694C40.7549 39.5891 41.2153 38.9001 41.5293 38.1418C41.8434 37.3835 42.0051 36.5708 42.0051 35.75C42.0053 35.5178 41.9407 35.2901 41.8188 35.0925C41.6968 34.8949 41.5222 34.7352 41.3145 34.6312ZM35.7551 39.5C32.7724 39.4967 29.9129 38.3104 27.8038 36.2013C25.6947 34.0922 24.5084 31.2327 24.5051 28.25C24.5049 27.383 24.805 26.5427 25.3546 25.8721C25.9041 25.2015 26.669 24.742 27.5192 24.5719L29.3129 28.1656L27.7864 30.4375C27.6723 30.6086 27.6022 30.8052 27.5823 31.0099C27.5624 31.2146 27.5933 31.4211 27.6723 31.6109C28.5666 33.7365 30.2576 35.4275 32.3832 36.3219C32.5737 36.4044 32.7817 36.4381 32.9885 36.4201C33.1952 36.4021 33.3943 36.3329 33.5676 36.2188L35.8504 34.6969L39.4442 36.4906C39.2727 37.3417 38.8112 38.107 38.1384 38.6558C37.4657 39.2046 36.6233 39.503 35.7551 39.5ZM32.0051 15.75C29.1996 15.7494 26.4417 16.4751 23.9999 17.8566C21.5581 19.2381 19.5155 21.2282 18.071 23.6333C16.6265 26.0384 15.8293 28.7764 15.757 31.581C15.6846 34.3856 16.3396 37.1612 17.6582 39.6375L15.8848 44.9578C15.7379 45.3983 15.7166 45.871 15.8232 46.3229C15.9299 46.7749 16.1603 47.1881 16.4886 47.5165C16.817 47.8448 17.2303 48.0752 17.6822 48.1819C18.1341 48.2885 18.6068 48.2672 19.0473 48.1203L24.3676 46.3469C26.5469 47.506 28.9617 48.1534 31.4286 48.24C33.8955 48.3266 36.3497 47.85 38.6049 46.8465C40.8601 45.8429 42.8571 44.3388 44.4442 42.4483C46.0313 40.5577 47.1669 38.3304 47.7647 35.9355C48.3625 33.5406 48.4068 31.0409 47.8944 28.6263C47.3819 26.2117 46.3261 23.9455 44.807 21.9999C43.288 20.0542 41.3456 18.4802 39.1275 17.3973C36.9093 16.3144 34.4735 15.751 32.0051 15.75ZM32.0051 45.75C29.5879 45.7516 27.2131 45.1151 25.1207 43.9047C24.9675 43.8158 24.7972 43.7606 24.621 43.7425C24.4449 43.7245 24.2669 43.7441 24.0989 43.8L18.2551 45.75L20.2035 39.9062C20.2597 39.7383 20.2796 39.5604 20.2618 39.3842C20.244 39.2081 20.189 39.0377 20.1004 38.8844C18.5847 36.2639 17.9762 33.2165 18.3692 30.2149C18.7622 27.2133 20.1348 24.4253 22.274 22.2834C24.4132 20.1415 27.1995 18.7654 30.2006 18.3686C33.2017 17.9718 36.2498 18.5765 38.8722 20.0889C41.4945 21.6012 43.5445 23.9367 44.7041 26.733C45.8637 29.5294 46.068 32.6302 45.2855 35.5545C44.5029 38.4788 42.7772 41.0632 40.376 42.9066C37.9748 44.75 35.0323 45.7495 32.0051 45.75Z" fill="black"/>
</svg>
