<svg width="64" height="64" viewBox="0 0 64 64" fill="none" xmlns="http://www.w3.org/2000/svg">
<rect x="1" y="1" width="62" height="62" rx="31" fill="white"/>
<rect x="1" y="1" width="62" height="62" rx="31" stroke="#945A9A" stroke-width="2"/>
<path d="M37.6938 30.9594L30.1938 25.9594C30.0055 25.8337 29.7866 25.7616 29.5605 25.7507C29.3344 25.7397 29.1096 25.7903 28.91 25.8972C28.7105 26.004 28.5437 26.163 28.4274 26.3573C28.3112 26.5515 28.2499 26.7736 28.25 27V37C28.2499 37.2264 28.3112 37.4485 28.4274 37.6427C28.5437 37.837 28.7105 37.996 28.91 38.1028C29.1096 38.2097 29.3344 38.2603 29.5605 38.2493C29.7866 38.2384 30.0055 38.1663 30.1938 38.0406L37.6938 33.0406C37.8652 32.9265 38.0058 32.7718 38.1031 32.5903C38.2003 32.4087 38.2512 32.206 38.2512 32C38.2512 31.794 38.2003 31.5913 38.1031 31.4097C38.0058 31.2282 37.8652 31.0735 37.6938 30.9594ZM30.75 34.6641V29.3438L34.7469 32L30.75 34.6641ZM48.6141 22.8625C48.4668 22.2865 48.1848 21.7537 47.7911 21.3082C47.3974 20.8626 46.9035 20.5171 46.35 20.3C40.9937 18.2313 32.4688 18.25 32 18.25C31.5312 18.25 23.0062 18.2313 17.65 20.3C17.0965 20.5171 16.6026 20.8626 16.2089 21.3082C15.8152 21.7537 15.5332 22.2865 15.3859 22.8625C14.9813 24.4219 14.5 27.2719 14.5 32C14.5 36.7281 14.9813 39.5781 15.3859 41.1375C15.5329 41.7138 15.8149 42.2469 16.2086 42.6927C16.6023 43.1385 17.0963 43.4843 17.65 43.7016C22.7812 45.6813 30.8125 45.75 31.8969 45.75H32.1031C33.1875 45.75 41.2234 45.6813 46.35 43.7016C46.9037 43.4843 47.3977 43.1385 47.7914 42.6927C48.1851 42.2469 48.4671 41.7138 48.6141 41.1375C49.0187 39.575 49.5 36.7281 49.5 32C49.5 27.2719 49.0187 24.4219 48.6141 22.8625ZM46.1937 40.5188C46.1461 40.7105 46.0538 40.8881 45.9242 41.0372C45.7947 41.1864 45.6316 41.3026 45.4484 41.3766C40.5031 43.2859 32.0922 43.2516 32.0109 43.2516H32C31.9156 43.2516 23.5109 43.2828 18.5625 41.3766C18.3793 41.3026 18.2163 41.1864 18.0867 41.0372C17.9572 40.8881 17.8648 40.7105 17.8172 40.5188C17.4375 39.0922 17 36.4641 17 32C17 27.5359 17.4375 24.9078 17.8063 23.4891C17.853 23.2962 17.945 23.1173 18.0746 22.967C18.2042 22.8168 18.3677 22.6995 18.5516 22.625C23.3203 20.7828 31.3109 20.75 31.9656 20.75H32.0078C32.0922 20.75 40.5047 20.7219 45.4453 22.625C45.6285 22.6989 45.7915 22.8152 45.9211 22.9643C46.0506 23.1134 46.143 23.2911 46.1906 23.4828C46.5625 24.9078 47 27.5359 47 32C47 36.4641 46.5625 39.0922 46.1937 40.5109V40.5188Z" fill="black"/>
</svg>
